<mxfile host="app.diagrams.net" agent="Mozilla/5.0 (Windows NT 10.0; Win64; x64) AppleWebKit/537.36 (KHTML, like Gecko) Chrome/131.0.0.0 Safari/537.36" version="26.0.5">
  <diagram name="Page-1" id="pwZF1fmiWI_HokIm1GMl">
    <mxGraphModel dx="1094" dy="617" grid="1" gridSize="10" guides="1" tooltips="1" connect="1" arrows="1" fold="1" page="1" pageScale="1" pageWidth="850" pageHeight="1100" math="0" shadow="0">
      <root>
        <mxCell id="0" />
        <mxCell id="1" parent="0" />
        <mxCell id="9j3O-kGa8PUBj-ueTTgq-31" style="edgeStyle=orthogonalEdgeStyle;rounded=0;orthogonalLoop=1;jettySize=auto;html=1;entryX=0;entryY=0.5;entryDx=0;entryDy=0;" edge="1" parent="1">
          <mxGeometry relative="1" as="geometry">
            <mxPoint x="80" y="170" as="sourcePoint" />
            <mxPoint x="160" y="170" as="targetPoint" />
          </mxGeometry>
        </mxCell>
        <mxCell id="9j3O-kGa8PUBj-ueTTgq-32" style="edgeStyle=orthogonalEdgeStyle;rounded=0;orthogonalLoop=1;jettySize=auto;html=1;" edge="1" parent="1">
          <mxGeometry relative="1" as="geometry">
            <mxPoint x="64.5" y="280" as="targetPoint" />
            <mxPoint x="64.5" y="200" as="sourcePoint" />
          </mxGeometry>
        </mxCell>
        <mxCell id="9j3O-kGa8PUBj-ueTTgq-37" value="" style="edgeStyle=orthogonalEdgeStyle;rounded=0;orthogonalLoop=1;jettySize=auto;html=1;" edge="1" parent="1" target="9j3O-kGa8PUBj-ueTTgq-36">
          <mxGeometry relative="1" as="geometry">
            <mxPoint x="80" y="310" as="sourcePoint" />
          </mxGeometry>
        </mxCell>
        <mxCell id="9j3O-kGa8PUBj-ueTTgq-36" value="Reception" style="shape=umlActor;verticalLabelPosition=bottom;verticalAlign=top;html=1;outlineConnect=0;" vertex="1" parent="1">
          <mxGeometry x="160" y="280" width="30" height="60" as="geometry" />
        </mxCell>
        <mxCell id="9j3O-kGa8PUBj-ueTTgq-41" style="edgeStyle=orthogonalEdgeStyle;rounded=0;orthogonalLoop=1;jettySize=auto;html=1;exitX=0.885;exitY=0.4;exitDx=0;exitDy=0;exitPerimeter=0;" edge="1" parent="1" source="9j3O-kGa8PUBj-ueTTgq-38">
          <mxGeometry relative="1" as="geometry">
            <mxPoint x="310" y="307" as="targetPoint" />
          </mxGeometry>
        </mxCell>
        <mxCell id="9j3O-kGa8PUBj-ueTTgq-38" value="" style="points=[[0.13,0.02,0],[0.5,0,0],[0.87,0.02,0],[0.885,0.4,0],[0.985,0.985,0],[0.5,1,0],[0.015,0.985,0],[0.115,0.4,0]];verticalLabelPosition=bottom;sketch=0;html=1;verticalAlign=top;aspect=fixed;align=center;pointerEvents=1;shape=mxgraph.cisco19.laptop;fillColor=#005073;strokeColor=none;" vertex="1" parent="1">
          <mxGeometry x="230" y="292.5" width="50" height="35" as="geometry" />
        </mxCell>
        <mxCell id="9j3O-kGa8PUBj-ueTTgq-86" value="" style="edgeStyle=orthogonalEdgeStyle;rounded=0;orthogonalLoop=1;jettySize=auto;html=1;" edge="1" parent="1" source="9j3O-kGa8PUBj-ueTTgq-39" target="9j3O-kGa8PUBj-ueTTgq-81">
          <mxGeometry relative="1" as="geometry" />
        </mxCell>
        <mxCell id="9j3O-kGa8PUBj-ueTTgq-39" value="Reception" style="rounded=1;whiteSpace=wrap;html=1;" vertex="1" parent="1">
          <mxGeometry x="90" y="135" width="120" height="60" as="geometry" />
        </mxCell>
        <mxCell id="9j3O-kGa8PUBj-ueTTgq-40" style="edgeStyle=orthogonalEdgeStyle;rounded=0;orthogonalLoop=1;jettySize=auto;html=1;entryX=0.4;entryY=0.5;entryDx=0;entryDy=0;entryPerimeter=0;" edge="1" parent="1" source="9j3O-kGa8PUBj-ueTTgq-36" target="9j3O-kGa8PUBj-ueTTgq-38">
          <mxGeometry relative="1" as="geometry" />
        </mxCell>
        <mxCell id="9j3O-kGa8PUBj-ueTTgq-43" style="edgeStyle=orthogonalEdgeStyle;rounded=0;orthogonalLoop=1;jettySize=auto;html=1;" edge="1" parent="1" source="9j3O-kGa8PUBj-ueTTgq-42">
          <mxGeometry relative="1" as="geometry">
            <mxPoint x="400" y="310.5" as="targetPoint" />
          </mxGeometry>
        </mxCell>
        <mxCell id="9j3O-kGa8PUBj-ueTTgq-45" style="edgeStyle=orthogonalEdgeStyle;rounded=0;orthogonalLoop=1;jettySize=auto;html=1;" edge="1" parent="1" source="9j3O-kGa8PUBj-ueTTgq-42">
          <mxGeometry relative="1" as="geometry">
            <mxPoint x="329" y="400" as="targetPoint" />
          </mxGeometry>
        </mxCell>
        <mxCell id="9j3O-kGa8PUBj-ueTTgq-42" value="" style="sketch=0;pointerEvents=1;shadow=0;dashed=0;html=1;strokeColor=none;fillColor=#505050;labelPosition=center;verticalLabelPosition=bottom;verticalAlign=top;outlineConnect=0;align=center;shape=mxgraph.office.devices.laptop;" vertex="1" parent="1">
          <mxGeometry x="300" y="293.5" width="58" height="34" as="geometry" />
        </mxCell>
        <mxCell id="9j3O-kGa8PUBj-ueTTgq-44" value="" style="endArrow=classic;startArrow=classic;html=1;rounded=0;" edge="1" parent="1">
          <mxGeometry width="50" height="50" relative="1" as="geometry">
            <mxPoint x="280" y="400" as="sourcePoint" />
            <mxPoint x="330" y="330" as="targetPoint" />
          </mxGeometry>
        </mxCell>
        <mxCell id="9j3O-kGa8PUBj-ueTTgq-75" style="edgeStyle=orthogonalEdgeStyle;rounded=0;orthogonalLoop=1;jettySize=auto;html=1;" edge="1" parent="1" source="9j3O-kGa8PUBj-ueTTgq-46">
          <mxGeometry relative="1" as="geometry">
            <mxPoint x="410" y="440" as="targetPoint" />
            <Array as="points">
              <mxPoint x="460" y="385" />
              <mxPoint x="411" y="385" />
            </Array>
          </mxGeometry>
        </mxCell>
        <mxCell id="9j3O-kGa8PUBj-ueTTgq-76" style="edgeStyle=orthogonalEdgeStyle;rounded=0;orthogonalLoop=1;jettySize=auto;html=1;" edge="1" parent="1">
          <mxGeometry relative="1" as="geometry">
            <mxPoint x="519.5" y="195" as="targetPoint" />
            <mxPoint x="519.5" y="305" as="sourcePoint" />
            <Array as="points">
              <mxPoint x="519.5" y="250" />
              <mxPoint x="520.5" y="250" />
            </Array>
          </mxGeometry>
        </mxCell>
        <mxCell id="9j3O-kGa8PUBj-ueTTgq-46" value="avaliable house&amp;nbsp;" style="rounded=0;whiteSpace=wrap;html=1;" vertex="1" parent="1">
          <mxGeometry x="400" y="290" width="120" height="40" as="geometry" />
        </mxCell>
        <mxCell id="9j3O-kGa8PUBj-ueTTgq-55" value="" style="edgeStyle=orthogonalEdgeStyle;rounded=0;orthogonalLoop=1;jettySize=auto;html=1;" edge="1" parent="1" source="9j3O-kGa8PUBj-ueTTgq-50" target="9j3O-kGa8PUBj-ueTTgq-52">
          <mxGeometry relative="1" as="geometry" />
        </mxCell>
        <mxCell id="9j3O-kGa8PUBj-ueTTgq-56" value="" style="edgeStyle=orthogonalEdgeStyle;rounded=0;orthogonalLoop=1;jettySize=auto;html=1;" edge="1" parent="1" source="9j3O-kGa8PUBj-ueTTgq-50" target="9j3O-kGa8PUBj-ueTTgq-52">
          <mxGeometry relative="1" as="geometry" />
        </mxCell>
        <mxCell id="9j3O-kGa8PUBj-ueTTgq-50" value="\Reception" style="shape=umlActor;verticalLabelPosition=bottom;verticalAlign=top;html=1;outlineConnect=0;" vertex="1" parent="1">
          <mxGeometry x="50" y="280" width="30" height="60" as="geometry" />
        </mxCell>
        <mxCell id="9j3O-kGa8PUBj-ueTTgq-52" value="Romsection&lt;div&gt;The room availability&amp;nbsp;&lt;/div&gt;" style="shape=umlActor;verticalLabelPosition=bottom;verticalAlign=top;html=1;outlineConnect=0;" vertex="1" parent="1">
          <mxGeometry x="50" y="420" width="30" height="60" as="geometry" />
        </mxCell>
        <mxCell id="9j3O-kGa8PUBj-ueTTgq-68" value="" style="edgeStyle=orthogonalEdgeStyle;rounded=0;orthogonalLoop=1;jettySize=auto;html=1;" edge="1" parent="1" source="9j3O-kGa8PUBj-ueTTgq-59" target="9j3O-kGa8PUBj-ueTTgq-64">
          <mxGeometry relative="1" as="geometry" />
        </mxCell>
        <mxCell id="9j3O-kGa8PUBj-ueTTgq-57" value="" style="endArrow=classic;startArrow=classic;html=1;rounded=0;entryX=0;entryY=0.3333333333333333;entryDx=0;entryDy=0;entryPerimeter=0;" edge="1" parent="1" target="9j3O-kGa8PUBj-ueTTgq-59">
          <mxGeometry width="50" height="50" relative="1" as="geometry">
            <mxPoint x="80" y="440" as="sourcePoint" />
            <mxPoint x="140" y="440" as="targetPoint" />
          </mxGeometry>
        </mxCell>
        <mxCell id="9j3O-kGa8PUBj-ueTTgq-59" value="Room availability&amp;nbsp;" style="shape=umlActor;verticalLabelPosition=bottom;verticalAlign=top;html=1;outlineConnect=0;" vertex="1" parent="1">
          <mxGeometry x="140" y="420" width="40" height="60" as="geometry" />
        </mxCell>
        <mxCell id="9j3O-kGa8PUBj-ueTTgq-61" style="edgeStyle=orthogonalEdgeStyle;rounded=0;orthogonalLoop=1;jettySize=auto;html=1;entryX=0.5;entryY=0;entryDx=0;entryDy=0;entryPerimeter=0;" edge="1" parent="1" source="9j3O-kGa8PUBj-ueTTgq-36" target="9j3O-kGa8PUBj-ueTTgq-59">
          <mxGeometry relative="1" as="geometry" />
        </mxCell>
        <mxCell id="9j3O-kGa8PUBj-ueTTgq-63" value="Reception" style="shape=umlActor;verticalLabelPosition=bottom;verticalAlign=top;html=1;outlineConnect=0;" vertex="1" parent="1">
          <mxGeometry x="160" y="280" width="30" height="60" as="geometry" />
        </mxCell>
        <mxCell id="9j3O-kGa8PUBj-ueTTgq-64" value="Confirmice the&amp;nbsp;&lt;div&gt;Room Availability&amp;nbsp;&lt;div&gt;&lt;br&gt;&lt;/div&gt;&lt;/div&gt;" style="shape=umlActor;verticalLabelPosition=bottom;verticalAlign=top;html=1;outlineConnect=0;" vertex="1" parent="1">
          <mxGeometry x="240" y="420" width="30" height="60" as="geometry" />
        </mxCell>
        <mxCell id="9j3O-kGa8PUBj-ueTTgq-72" value="" style="edgeStyle=orthogonalEdgeStyle;rounded=0;orthogonalLoop=1;jettySize=auto;html=1;" edge="1" parent="1" source="9j3O-kGa8PUBj-ueTTgq-69" target="9j3O-kGa8PUBj-ueTTgq-70">
          <mxGeometry relative="1" as="geometry" />
        </mxCell>
        <mxCell id="9j3O-kGa8PUBj-ueTTgq-69" value="Confirmice the&amp;nbsp;&lt;div&gt;Room Availability&amp;nbsp;&lt;div&gt;&lt;br&gt;&lt;/div&gt;&lt;/div&gt;" style="shape=umlActor;verticalLabelPosition=bottom;verticalAlign=top;html=1;outlineConnect=0;" vertex="1" parent="1">
          <mxGeometry x="240" y="420" width="30" height="60" as="geometry" />
        </mxCell>
        <mxCell id="9j3O-kGa8PUBj-ueTTgq-74" value="" style="edgeStyle=orthogonalEdgeStyle;rounded=0;orthogonalLoop=1;jettySize=auto;html=1;" edge="1" parent="1" source="9j3O-kGa8PUBj-ueTTgq-70" target="9j3O-kGa8PUBj-ueTTgq-73">
          <mxGeometry relative="1" as="geometry">
            <Array as="points">
              <mxPoint x="400" y="440" />
              <mxPoint x="400" y="440" />
            </Array>
          </mxGeometry>
        </mxCell>
        <mxCell id="9j3O-kGa8PUBj-ueTTgq-70" value="&lt;div&gt;&lt;div&gt;Uniform&lt;/div&gt;&lt;/div&gt;&lt;div&gt;the to&amp;nbsp;&lt;/div&gt;&lt;div&gt;Reserved&amp;nbsp;&lt;/div&gt;" style="shape=umlActor;verticalLabelPosition=bottom;verticalAlign=top;html=1;outlineConnect=0;" vertex="1" parent="1">
          <mxGeometry x="314" y="420" width="30" height="60" as="geometry" />
        </mxCell>
        <mxCell id="9j3O-kGa8PUBj-ueTTgq-73" value="&lt;div&gt;&lt;div&gt;Housekeeping to&amp;nbsp;&lt;/div&gt;&lt;/div&gt;&lt;div&gt;availability&amp;nbsp;&lt;/div&gt;" style="shape=umlActor;verticalLabelPosition=bottom;verticalAlign=top;html=1;outlineConnect=0;" vertex="1" parent="1">
          <mxGeometry x="400" y="420" width="25" height="60" as="geometry" />
        </mxCell>
        <mxCell id="9j3O-kGa8PUBj-ueTTgq-80" value="" style="edgeStyle=orthogonalEdgeStyle;rounded=0;orthogonalLoop=1;jettySize=auto;html=1;" edge="1" parent="1" source="9j3O-kGa8PUBj-ueTTgq-78" target="9j3O-kGa8PUBj-ueTTgq-79">
          <mxGeometry relative="1" as="geometry" />
        </mxCell>
        <mxCell id="9j3O-kGa8PUBj-ueTTgq-87" value="" style="edgeStyle=orthogonalEdgeStyle;rounded=0;orthogonalLoop=1;jettySize=auto;html=1;" edge="1" parent="1" source="9j3O-kGa8PUBj-ueTTgq-78" target="9j3O-kGa8PUBj-ueTTgq-81">
          <mxGeometry relative="1" as="geometry" />
        </mxCell>
        <mxCell id="9j3O-kGa8PUBj-ueTTgq-78" value="stop" style="rounded=0;whiteSpace=wrap;html=1;" vertex="1" parent="1">
          <mxGeometry x="330" y="150" width="116" height="30" as="geometry" />
        </mxCell>
        <mxCell id="9j3O-kGa8PUBj-ueTTgq-79" value="receipt&amp;nbsp;" style="ellipse;whiteSpace=wrap;html=1;" vertex="1" parent="1">
          <mxGeometry x="460" y="155" width="120" height="30" as="geometry" />
        </mxCell>
        <mxCell id="9j3O-kGa8PUBj-ueTTgq-81" value="reception&amp;nbsp;" style="rounded=0;whiteSpace=wrap;html=1;" vertex="1" parent="1">
          <mxGeometry x="230" y="150" width="80" height="30" as="geometry" />
        </mxCell>
        <mxCell id="9j3O-kGa8PUBj-ueTTgq-58" value="\Customer&amp;nbsp;" style="shape=umlActor;verticalLabelPosition=bottom;verticalAlign=top;html=1;outlineConnect=0;" vertex="1" parent="1">
          <mxGeometry x="50" y="150" width="30" height="60" as="geometry" />
        </mxCell>
        <mxCell id="9j3O-kGa8PUBj-ueTTgq-90" style="edgeStyle=orthogonalEdgeStyle;rounded=0;orthogonalLoop=1;jettySize=auto;html=1;exitX=0.25;exitY=0.1;exitDx=0;exitDy=0;exitPerimeter=0;entryX=0.5;entryY=0;entryDx=0;entryDy=0;entryPerimeter=0;" edge="1" parent="1" source="9j3O-kGa8PUBj-ueTTgq-73" target="9j3O-kGa8PUBj-ueTTgq-73">
          <mxGeometry relative="1" as="geometry">
            <Array as="points">
              <mxPoint x="406" y="430" />
            </Array>
          </mxGeometry>
        </mxCell>
        <mxCell id="9j3O-kGa8PUBj-ueTTgq-93" style="edgeStyle=orthogonalEdgeStyle;rounded=0;orthogonalLoop=1;jettySize=auto;html=1;exitX=0;exitY=0.5;exitDx=0;exitDy=0;entryX=0;entryY=0.5;entryDx=0;entryDy=0;" edge="1" parent="1" source="9j3O-kGa8PUBj-ueTTgq-95" target="9j3O-kGa8PUBj-ueTTgq-165">
          <mxGeometry relative="1" as="geometry">
            <Array as="points">
              <mxPoint x="50" y="645" />
              <mxPoint x="50" y="1240" />
            </Array>
          </mxGeometry>
        </mxCell>
        <mxCell id="9j3O-kGa8PUBj-ueTTgq-94" style="edgeStyle=orthogonalEdgeStyle;rounded=0;orthogonalLoop=1;jettySize=auto;html=1;" edge="1" parent="1" source="9j3O-kGa8PUBj-ueTTgq-95">
          <mxGeometry relative="1" as="geometry">
            <mxPoint x="515" y="580" as="targetPoint" />
          </mxGeometry>
        </mxCell>
        <mxCell id="9j3O-kGa8PUBj-ueTTgq-95" value="" style="rounded=0;whiteSpace=wrap;html=1;" vertex="1" parent="1">
          <mxGeometry x="200" y="590" width="630" height="110" as="geometry" />
        </mxCell>
        <mxCell id="9j3O-kGa8PUBj-ueTTgq-96" value="Services" style="rounded=0;whiteSpace=wrap;html=1;" vertex="1" parent="1">
          <mxGeometry x="230" y="615" width="120" height="60" as="geometry" />
        </mxCell>
        <mxCell id="9j3O-kGa8PUBj-ueTTgq-97" value="Transformers" style="rounded=0;whiteSpace=wrap;html=1;" vertex="1" parent="1">
          <mxGeometry x="390" y="615" width="120" height="60" as="geometry" />
        </mxCell>
        <mxCell id="9j3O-kGa8PUBj-ueTTgq-98" value="Exception" style="rounded=0;whiteSpace=wrap;html=1;" vertex="1" parent="1">
          <mxGeometry x="540" y="615" width="120" height="60" as="geometry" />
        </mxCell>
        <mxCell id="9j3O-kGa8PUBj-ueTTgq-99" value="Config" style="rounded=0;whiteSpace=wrap;html=1;" vertex="1" parent="1">
          <mxGeometry x="690" y="615" width="120" height="60" as="geometry" />
        </mxCell>
        <mxCell id="9j3O-kGa8PUBj-ueTTgq-100" style="edgeStyle=orthogonalEdgeStyle;rounded=0;orthogonalLoop=1;jettySize=auto;html=1;exitX=0;exitY=0.5;exitDx=0;exitDy=0;entryX=0;entryY=0.25;entryDx=0;entryDy=0;" edge="1" parent="1" source="9j3O-kGa8PUBj-ueTTgq-101" target="9j3O-kGa8PUBj-ueTTgq-165">
          <mxGeometry relative="1" as="geometry">
            <Array as="points">
              <mxPoint x="110" y="850" />
              <mxPoint x="110" y="1215" />
            </Array>
          </mxGeometry>
        </mxCell>
        <mxCell id="9j3O-kGa8PUBj-ueTTgq-101" value="" style="rounded=0;whiteSpace=wrap;html=1;" vertex="1" parent="1">
          <mxGeometry x="200" y="800" width="630" height="100" as="geometry" />
        </mxCell>
        <mxCell id="9j3O-kGa8PUBj-ueTTgq-102" style="edgeStyle=orthogonalEdgeStyle;rounded=0;orthogonalLoop=1;jettySize=auto;html=1;exitX=0.75;exitY=1;exitDx=0;exitDy=0;entryX=0.75;entryY=0;entryDx=0;entryDy=0;" edge="1" parent="1" source="9j3O-kGa8PUBj-ueTTgq-105" target="9j3O-kGa8PUBj-ueTTgq-131">
          <mxGeometry relative="1" as="geometry">
            <Array as="points">
              <mxPoint x="310" y="940" />
              <mxPoint x="418" y="940" />
            </Array>
          </mxGeometry>
        </mxCell>
        <mxCell id="9j3O-kGa8PUBj-ueTTgq-103" style="edgeStyle=orthogonalEdgeStyle;rounded=0;orthogonalLoop=1;jettySize=auto;html=1;exitX=0.25;exitY=1;exitDx=0;exitDy=0;entryX=0.25;entryY=0;entryDx=0;entryDy=0;" edge="1" parent="1" source="9j3O-kGa8PUBj-ueTTgq-105" target="9j3O-kGa8PUBj-ueTTgq-130">
          <mxGeometry relative="1" as="geometry" />
        </mxCell>
        <mxCell id="9j3O-kGa8PUBj-ueTTgq-104" style="edgeStyle=orthogonalEdgeStyle;rounded=0;orthogonalLoop=1;jettySize=auto;html=1;exitX=1;exitY=0.5;exitDx=0;exitDy=0;" edge="1" parent="1" source="9j3O-kGa8PUBj-ueTTgq-105">
          <mxGeometry relative="1" as="geometry">
            <mxPoint x="960" y="680" as="targetPoint" />
            <Array as="points">
              <mxPoint x="340" y="900" />
              <mxPoint x="961" y="900" />
              <mxPoint x="961" y="680" />
            </Array>
          </mxGeometry>
        </mxCell>
        <mxCell id="9j3O-kGa8PUBj-ueTTgq-105" value="reservations - rooms" style="rounded=0;whiteSpace=wrap;html=1;" vertex="1" parent="1">
          <mxGeometry x="220" y="830" width="120" height="60" as="geometry" />
        </mxCell>
        <mxCell id="9j3O-kGa8PUBj-ueTTgq-106" value="Costumers Exceptions" style="rounded=0;whiteSpace=wrap;html=1;" vertex="1" parent="1">
          <mxGeometry x="670" y="830" width="120" height="60" as="geometry" />
        </mxCell>
        <mxCell id="9j3O-kGa8PUBj-ueTTgq-107" value="" style="rounded=0;whiteSpace=wrap;html=1;" vertex="1" parent="1">
          <mxGeometry x="220" y="810" width="50" height="20" as="geometry" />
        </mxCell>
        <mxCell id="9j3O-kGa8PUBj-ueTTgq-108" style="edgeStyle=orthogonalEdgeStyle;rounded=0;orthogonalLoop=1;jettySize=auto;html=1;exitX=0.75;exitY=1;exitDx=0;exitDy=0;entryX=0.5;entryY=1;entryDx=0;entryDy=0;" edge="1" parent="1" source="9j3O-kGa8PUBj-ueTTgq-107" target="9j3O-kGa8PUBj-ueTTgq-107">
          <mxGeometry relative="1" as="geometry" />
        </mxCell>
        <mxCell id="9j3O-kGa8PUBj-ueTTgq-109" value="" style="rounded=0;whiteSpace=wrap;html=1;" vertex="1" parent="1">
          <mxGeometry x="220" y="810" width="50" height="20" as="geometry" />
        </mxCell>
        <mxCell id="9j3O-kGa8PUBj-ueTTgq-110" value="" style="whiteSpace=wrap;html=1;" vertex="1" parent="1">
          <mxGeometry x="670" y="810" width="50" height="20" as="geometry" />
        </mxCell>
        <mxCell id="9j3O-kGa8PUBj-ueTTgq-111" value="" style="rounded=0;whiteSpace=wrap;html=1;" vertex="1" parent="1">
          <mxGeometry x="230" y="595" width="50" height="20" as="geometry" />
        </mxCell>
        <mxCell id="9j3O-kGa8PUBj-ueTTgq-112" value="" style="rounded=0;whiteSpace=wrap;html=1;" vertex="1" parent="1">
          <mxGeometry x="390" y="595" width="50" height="20" as="geometry" />
        </mxCell>
        <mxCell id="9j3O-kGa8PUBj-ueTTgq-113" value="" style="rounded=0;whiteSpace=wrap;html=1;" vertex="1" parent="1">
          <mxGeometry x="540" y="595" width="50" height="20" as="geometry" />
        </mxCell>
        <mxCell id="9j3O-kGa8PUBj-ueTTgq-114" value="" style="rounded=0;whiteSpace=wrap;html=1;" vertex="1" parent="1">
          <mxGeometry x="690" y="595" width="50" height="20" as="geometry" />
        </mxCell>
        <mxCell id="9j3O-kGa8PUBj-ueTTgq-115" value="" style="rounded=0;whiteSpace=wrap;html=1;" vertex="1" parent="1">
          <mxGeometry x="880" y="615" width="120" height="60" as="geometry" />
        </mxCell>
        <mxCell id="9j3O-kGa8PUBj-ueTTgq-116" value="" style="rounded=0;whiteSpace=wrap;html=1;" vertex="1" parent="1">
          <mxGeometry x="880" y="595" width="50" height="20" as="geometry" />
        </mxCell>
        <mxCell id="9j3O-kGa8PUBj-ueTTgq-117" value="" style="rounded=0;whiteSpace=wrap;html=1;" vertex="1" parent="1">
          <mxGeometry x="200" y="780" width="260" height="20" as="geometry" />
        </mxCell>
        <mxCell id="9j3O-kGa8PUBj-ueTTgq-118" value="" style="rounded=0;whiteSpace=wrap;html=1;" vertex="1" parent="1">
          <mxGeometry x="200" y="570" width="260" height="20" as="geometry" />
        </mxCell>
        <mxCell id="9j3O-kGa8PUBj-ueTTgq-119" style="edgeStyle=orthogonalEdgeStyle;rounded=0;orthogonalLoop=1;jettySize=auto;html=1;exitX=1;exitY=0.5;exitDx=0;exitDy=0;" edge="1" parent="1" source="9j3O-kGa8PUBj-ueTTgq-121">
          <mxGeometry relative="1" as="geometry">
            <mxPoint x="1040" y="1040.3333333333335" as="targetPoint" />
          </mxGeometry>
        </mxCell>
        <mxCell id="9j3O-kGa8PUBj-ueTTgq-120" style="edgeStyle=orthogonalEdgeStyle;rounded=0;orthogonalLoop=1;jettySize=auto;html=1;exitX=0;exitY=0.5;exitDx=0;exitDy=0;" edge="1" parent="1" source="9j3O-kGa8PUBj-ueTTgq-121">
          <mxGeometry relative="1" as="geometry">
            <mxPoint x="370" y="1215.3333536783853" as="targetPoint" />
            <Array as="points">
              <mxPoint x="180" y="1030" />
              <mxPoint x="180" y="1190" />
              <mxPoint x="380" y="1190" />
              <mxPoint x="380" y="1215" />
            </Array>
          </mxGeometry>
        </mxCell>
        <mxCell id="9j3O-kGa8PUBj-ueTTgq-121" value="" style="rounded=0;whiteSpace=wrap;html=1;" vertex="1" parent="1">
          <mxGeometry x="200" y="970" width="780" height="120" as="geometry" />
        </mxCell>
        <mxCell id="9j3O-kGa8PUBj-ueTTgq-122" value="" style="rounded=0;whiteSpace=wrap;html=1;" vertex="1" parent="1">
          <mxGeometry x="230" y="1010" width="120" height="60" as="geometry" />
        </mxCell>
        <mxCell id="9j3O-kGa8PUBj-ueTTgq-123" style="edgeStyle=orthogonalEdgeStyle;rounded=0;orthogonalLoop=1;jettySize=auto;html=1;" edge="1" parent="1" source="9j3O-kGa8PUBj-ueTTgq-126">
          <mxGeometry relative="1" as="geometry">
            <mxPoint x="350" y="1040" as="targetPoint" />
          </mxGeometry>
        </mxCell>
        <mxCell id="9j3O-kGa8PUBj-ueTTgq-124" style="edgeStyle=orthogonalEdgeStyle;rounded=0;orthogonalLoop=1;jettySize=auto;html=1;exitX=0.75;exitY=0;exitDx=0;exitDy=0;" edge="1" parent="1" source="9j3O-kGa8PUBj-ueTTgq-126">
          <mxGeometry relative="1" as="geometry">
            <mxPoint x="980" y="680" as="targetPoint" />
            <Array as="points">
              <mxPoint x="470" y="930" />
              <mxPoint x="981" y="930" />
              <mxPoint x="981" y="680" />
            </Array>
          </mxGeometry>
        </mxCell>
        <mxCell id="9j3O-kGa8PUBj-ueTTgq-125" style="edgeStyle=orthogonalEdgeStyle;rounded=0;orthogonalLoop=1;jettySize=auto;html=1;exitX=0.5;exitY=1;exitDx=0;exitDy=0;entryX=0;entryY=0.75;entryDx=0;entryDy=0;" edge="1" parent="1">
          <mxGeometry relative="1" as="geometry">
            <mxPoint x="450" y="1057.5" as="sourcePoint" />
            <mxPoint x="180" y="1422.5" as="targetPoint" />
            <Array as="points">
              <mxPoint x="450" y="1070" />
              <mxPoint x="220" y="1070" />
              <mxPoint x="220" y="1218" />
              <mxPoint x="160" y="1218" />
              <mxPoint x="160" y="1423" />
            </Array>
          </mxGeometry>
        </mxCell>
        <mxCell id="9j3O-kGa8PUBj-ueTTgq-126" value="" style="rounded=0;whiteSpace=wrap;html=1;" vertex="1" parent="1">
          <mxGeometry x="380" y="1010" width="120" height="60" as="geometry" />
        </mxCell>
        <mxCell id="9j3O-kGa8PUBj-ueTTgq-127" value="" style="rounded=0;whiteSpace=wrap;html=1;" vertex="1" parent="1">
          <mxGeometry x="530" y="1010" width="120" height="60" as="geometry" />
        </mxCell>
        <mxCell id="9j3O-kGa8PUBj-ueTTgq-128" value="" style="rounded=0;whiteSpace=wrap;html=1;" vertex="1" parent="1">
          <mxGeometry x="680" y="1010" width="120" height="60" as="geometry" />
        </mxCell>
        <mxCell id="9j3O-kGa8PUBj-ueTTgq-129" value="" style="rounded=0;whiteSpace=wrap;html=1;" vertex="1" parent="1">
          <mxGeometry x="830" y="1010" width="120" height="60" as="geometry" />
        </mxCell>
        <mxCell id="9j3O-kGa8PUBj-ueTTgq-130" value="" style="rounded=0;whiteSpace=wrap;html=1;" vertex="1" parent="1">
          <mxGeometry x="230" y="990" width="50" height="20" as="geometry" />
        </mxCell>
        <mxCell id="9j3O-kGa8PUBj-ueTTgq-131" value="" style="rounded=0;whiteSpace=wrap;html=1;" vertex="1" parent="1">
          <mxGeometry x="380" y="990" width="50" height="20" as="geometry" />
        </mxCell>
        <mxCell id="9j3O-kGa8PUBj-ueTTgq-132" value="" style="rounded=0;whiteSpace=wrap;html=1;" vertex="1" parent="1">
          <mxGeometry x="530" y="990" width="50" height="20" as="geometry" />
        </mxCell>
        <mxCell id="9j3O-kGa8PUBj-ueTTgq-133" value="" style="rounded=0;whiteSpace=wrap;html=1;" vertex="1" parent="1">
          <mxGeometry x="680" y="990" width="50" height="20" as="geometry" />
        </mxCell>
        <mxCell id="9j3O-kGa8PUBj-ueTTgq-134" value="" style="rounded=0;whiteSpace=wrap;html=1;" vertex="1" parent="1">
          <mxGeometry x="830" y="990" width="50" height="20" as="geometry" />
        </mxCell>
        <mxCell id="9j3O-kGa8PUBj-ueTTgq-135" style="edgeStyle=orthogonalEdgeStyle;rounded=0;orthogonalLoop=1;jettySize=auto;html=1;exitX=0;exitY=0;exitDx=80;exitDy=30;exitPerimeter=0;" edge="1" parent="1" source="9j3O-kGa8PUBj-ueTTgq-136">
          <mxGeometry relative="1" as="geometry">
            <mxPoint x="1070" y="840.3333333333335" as="targetPoint" />
          </mxGeometry>
        </mxCell>
        <mxCell id="9j3O-kGa8PUBj-ueTTgq-136" value="" style="shape=note;whiteSpace=wrap;html=1;backgroundOutline=1;darkOpacity=0.05;" vertex="1" parent="1">
          <mxGeometry x="1010" y="800" width="450" height="70" as="geometry" />
        </mxCell>
        <mxCell id="9j3O-kGa8PUBj-ueTTgq-137" value="" style="shape=note;whiteSpace=wrap;html=1;backgroundOutline=1;darkOpacity=0.05;" vertex="1" parent="1">
          <mxGeometry x="1040" y="880" width="390" height="50" as="geometry" />
        </mxCell>
        <mxCell id="9j3O-kGa8PUBj-ueTTgq-138" value="" style="rounded=0;whiteSpace=wrap;html=1;" vertex="1" parent="1">
          <mxGeometry x="1050" y="980" width="190" height="90" as="geometry" />
        </mxCell>
        <mxCell id="9j3O-kGa8PUBj-ueTTgq-139" value="" style="rounded=0;whiteSpace=wrap;html=1;" vertex="1" parent="1">
          <mxGeometry x="1050" y="960" width="80" height="20" as="geometry" />
        </mxCell>
        <mxCell id="9j3O-kGa8PUBj-ueTTgq-140" value="" style="rounded=0;whiteSpace=wrap;html=1;" vertex="1" parent="1">
          <mxGeometry x="380" y="1170" width="80" height="20" as="geometry" />
        </mxCell>
        <mxCell id="9j3O-kGa8PUBj-ueTTgq-141" value="DTO" style="rounded=0;whiteSpace=wrap;html=1;" vertex="1" parent="1">
          <mxGeometry x="170" y="1390" width="130" height="60" as="geometry" />
        </mxCell>
        <mxCell id="9j3O-kGa8PUBj-ueTTgq-142" value="Types" style="rounded=0;whiteSpace=wrap;html=1;" vertex="1" parent="1">
          <mxGeometry x="390" y="1390" width="130" height="60" as="geometry" />
        </mxCell>
        <mxCell id="9j3O-kGa8PUBj-ueTTgq-143" value="values" style="rounded=0;whiteSpace=wrap;html=1;" vertex="1" parent="1">
          <mxGeometry x="600" y="1390" width="130" height="60" as="geometry" />
        </mxCell>
        <mxCell id="9j3O-kGa8PUBj-ueTTgq-144" value="Exceptions" style="rounded=0;whiteSpace=wrap;html=1;" vertex="1" parent="1">
          <mxGeometry x="780" y="1390" width="130" height="60" as="geometry" />
        </mxCell>
        <mxCell id="9j3O-kGa8PUBj-ueTTgq-145" value="" style="endArrow=none;dashed=1;html=1;dashPattern=1 3;strokeWidth=2;rounded=0;entryX=0.5;entryY=0;entryDx=0;entryDy=0;exitX=0.424;exitY=1.02;exitDx=0;exitDy=0;exitPerimeter=0;" edge="1" parent="1" source="9j3O-kGa8PUBj-ueTTgq-165" target="9j3O-kGa8PUBj-ueTTgq-141">
          <mxGeometry width="50" height="50" relative="1" as="geometry">
            <mxPoint x="660" y="1180" as="sourcePoint" />
            <mxPoint x="710" y="1130" as="targetPoint" />
          </mxGeometry>
        </mxCell>
        <mxCell id="9j3O-kGa8PUBj-ueTTgq-146" value="" style="endArrow=none;dashed=1;html=1;dashPattern=1 3;strokeWidth=2;rounded=0;entryX=0.5;entryY=0;entryDx=0;entryDy=0;" edge="1" parent="1" target="9j3O-kGa8PUBj-ueTTgq-142">
          <mxGeometry width="50" height="50" relative="1" as="geometry">
            <mxPoint x="510" y="1290" as="sourcePoint" />
            <mxPoint x="710" y="1130" as="targetPoint" />
          </mxGeometry>
        </mxCell>
        <mxCell id="9j3O-kGa8PUBj-ueTTgq-147" value="" style="endArrow=none;dashed=1;html=1;dashPattern=1 3;strokeWidth=2;rounded=0;entryX=0.5;entryY=0;entryDx=0;entryDy=0;exitX=0.447;exitY=1.02;exitDx=0;exitDy=0;exitPerimeter=0;" edge="1" parent="1" source="9j3O-kGa8PUBj-ueTTgq-165" target="9j3O-kGa8PUBj-ueTTgq-143">
          <mxGeometry width="50" height="50" relative="1" as="geometry">
            <mxPoint x="660" y="1180" as="sourcePoint" />
            <mxPoint x="710" y="1130" as="targetPoint" />
          </mxGeometry>
        </mxCell>
        <mxCell id="9j3O-kGa8PUBj-ueTTgq-148" value="" style="endArrow=none;dashed=1;html=1;dashPattern=1 3;strokeWidth=2;rounded=0;entryX=0.5;entryY=0;entryDx=0;entryDy=0;exitX=0.451;exitY=1.047;exitDx=0;exitDy=0;exitPerimeter=0;" edge="1" parent="1" source="9j3O-kGa8PUBj-ueTTgq-157" target="9j3O-kGa8PUBj-ueTTgq-144">
          <mxGeometry width="50" height="50" relative="1" as="geometry">
            <mxPoint x="660" y="1180" as="sourcePoint" />
            <mxPoint x="710" y="1130" as="targetPoint" />
          </mxGeometry>
        </mxCell>
        <mxCell id="9j3O-kGa8PUBj-ueTTgq-149" value="" style="rounded=0;whiteSpace=wrap;html=1;" vertex="1" parent="1">
          <mxGeometry x="390" y="1370" width="60" height="20" as="geometry" />
        </mxCell>
        <mxCell id="9j3O-kGa8PUBj-ueTTgq-150" value="" style="rounded=0;whiteSpace=wrap;html=1;" vertex="1" parent="1">
          <mxGeometry x="170" y="1370" width="60" height="20" as="geometry" />
        </mxCell>
        <mxCell id="9j3O-kGa8PUBj-ueTTgq-151" style="edgeStyle=orthogonalEdgeStyle;rounded=0;orthogonalLoop=1;jettySize=auto;html=1;exitX=0.5;exitY=0;exitDx=0;exitDy=0;entryX=0.5;entryY=1;entryDx=0;entryDy=0;" edge="1" parent="1" source="9j3O-kGa8PUBj-ueTTgq-150" target="9j3O-kGa8PUBj-ueTTgq-150">
          <mxGeometry relative="1" as="geometry" />
        </mxCell>
        <mxCell id="9j3O-kGa8PUBj-ueTTgq-152" style="edgeStyle=orthogonalEdgeStyle;rounded=0;orthogonalLoop=1;jettySize=auto;html=1;exitX=0.25;exitY=0;exitDx=0;exitDy=0;entryX=0.75;entryY=1;entryDx=0;entryDy=0;" edge="1" parent="1" source="9j3O-kGa8PUBj-ueTTgq-149" target="9j3O-kGa8PUBj-ueTTgq-149">
          <mxGeometry relative="1" as="geometry" />
        </mxCell>
        <mxCell id="9j3O-kGa8PUBj-ueTTgq-153" value="" style="rounded=0;whiteSpace=wrap;html=1;" vertex="1" parent="1">
          <mxGeometry x="600" y="1370" width="50" height="20" as="geometry" />
        </mxCell>
        <mxCell id="9j3O-kGa8PUBj-ueTTgq-154" style="edgeStyle=orthogonalEdgeStyle;rounded=0;orthogonalLoop=1;jettySize=auto;html=1;exitX=1;exitY=0.25;exitDx=0;exitDy=0;entryX=1;entryY=0.5;entryDx=0;entryDy=0;" edge="1" parent="1" source="9j3O-kGa8PUBj-ueTTgq-153" target="9j3O-kGa8PUBj-ueTTgq-153">
          <mxGeometry relative="1" as="geometry" />
        </mxCell>
        <mxCell id="9j3O-kGa8PUBj-ueTTgq-155" style="edgeStyle=orthogonalEdgeStyle;rounded=0;orthogonalLoop=1;jettySize=auto;html=1;exitX=0.25;exitY=0;exitDx=0;exitDy=0;entryX=0.5;entryY=0;entryDx=0;entryDy=0;" edge="1" parent="1" source="9j3O-kGa8PUBj-ueTTgq-153" target="9j3O-kGa8PUBj-ueTTgq-153">
          <mxGeometry relative="1" as="geometry" />
        </mxCell>
        <mxCell id="9j3O-kGa8PUBj-ueTTgq-156" value="" style="endArrow=none;dashed=1;html=1;dashPattern=1 3;strokeWidth=2;rounded=0;entryX=0.5;entryY=0;entryDx=0;entryDy=0;exitX=0.451;exitY=1.047;exitDx=0;exitDy=0;exitPerimeter=0;" edge="1" parent="1" source="9j3O-kGa8PUBj-ueTTgq-165" target="9j3O-kGa8PUBj-ueTTgq-157">
          <mxGeometry width="50" height="50" relative="1" as="geometry">
            <mxPoint x="515" y="1295" as="sourcePoint" />
            <mxPoint x="845" y="1390" as="targetPoint" />
          </mxGeometry>
        </mxCell>
        <mxCell id="9j3O-kGa8PUBj-ueTTgq-157" value="" style="rounded=0;whiteSpace=wrap;html=1;" vertex="1" parent="1">
          <mxGeometry x="780" y="1370" width="50" height="20" as="geometry" />
        </mxCell>
        <mxCell id="9j3O-kGa8PUBj-ueTTgq-158" value="" style="endArrow=classic;html=1;rounded=0;exitX=0.5;exitY=1;exitDx=0;exitDy=0;" edge="1" parent="1" source="9j3O-kGa8PUBj-ueTTgq-96">
          <mxGeometry relative="1" as="geometry">
            <mxPoint x="630" y="870" as="sourcePoint" />
            <mxPoint x="890" y="650" as="targetPoint" />
            <Array as="points">
              <mxPoint x="290" y="730" />
              <mxPoint x="840" y="730" />
              <mxPoint x="840" y="650" />
            </Array>
          </mxGeometry>
        </mxCell>
        <mxCell id="9j3O-kGa8PUBj-ueTTgq-159" value="Label" style="edgeLabel;resizable=0;html=1;;align=center;verticalAlign=middle;" connectable="0" vertex="1" parent="9j3O-kGa8PUBj-ueTTgq-158">
          <mxGeometry relative="1" as="geometry" />
        </mxCell>
        <mxCell id="9j3O-kGa8PUBj-ueTTgq-160" style="edgeStyle=orthogonalEdgeStyle;rounded=0;orthogonalLoop=1;jettySize=auto;html=1;entryX=0.71;entryY=-0.067;entryDx=0;entryDy=0;entryPerimeter=0;" edge="1" parent="1" source="9j3O-kGa8PUBj-ueTTgq-96" target="9j3O-kGa8PUBj-ueTTgq-117">
          <mxGeometry relative="1" as="geometry" />
        </mxCell>
        <mxCell id="9j3O-kGa8PUBj-ueTTgq-161" style="edgeStyle=orthogonalEdgeStyle;rounded=0;orthogonalLoop=1;jettySize=auto;html=1;exitX=0.5;exitY=1;exitDx=0;exitDy=0;exitPerimeter=0;entryX=0.905;entryY=-0.015;entryDx=0;entryDy=0;entryPerimeter=0;" edge="1" parent="1" source="9j3O-kGa8PUBj-ueTTgq-137" target="9j3O-kGa8PUBj-ueTTgq-138">
          <mxGeometry relative="1" as="geometry" />
        </mxCell>
        <mxCell id="9j3O-kGa8PUBj-ueTTgq-162" style="edgeStyle=orthogonalEdgeStyle;rounded=0;orthogonalLoop=1;jettySize=auto;html=1;exitX=1;exitY=1;exitDx=0;exitDy=0;entryX=0.662;entryY=0.017;entryDx=0;entryDy=0;entryPerimeter=0;" edge="1" parent="1" source="9j3O-kGa8PUBj-ueTTgq-105" target="9j3O-kGa8PUBj-ueTTgq-121">
          <mxGeometry relative="1" as="geometry" />
        </mxCell>
        <mxCell id="9j3O-kGa8PUBj-ueTTgq-163" style="edgeStyle=orthogonalEdgeStyle;rounded=0;orthogonalLoop=1;jettySize=auto;html=1;exitX=0.5;exitY=1;exitDx=0;exitDy=0;entryX=0.487;entryY=0.836;entryDx=0;entryDy=0;entryPerimeter=0;" edge="1" parent="1" source="9j3O-kGa8PUBj-ueTTgq-129" target="9j3O-kGa8PUBj-ueTTgq-121">
          <mxGeometry relative="1" as="geometry" />
        </mxCell>
        <mxCell id="9j3O-kGa8PUBj-ueTTgq-164" value="" style="edgeStyle=orthogonalEdgeStyle;rounded=0;orthogonalLoop=1;jettySize=auto;html=1;exitX=0.5;exitY=1;exitDx=0;exitDy=0;entryX=0;entryY=0.5;entryDx=0;entryDy=0;" edge="1" parent="1" source="9j3O-kGa8PUBj-ueTTgq-126" target="9j3O-kGa8PUBj-ueTTgq-165">
          <mxGeometry relative="1" as="geometry">
            <mxPoint x="440" y="1070" as="sourcePoint" />
            <mxPoint x="170" y="1420" as="targetPoint" />
          </mxGeometry>
        </mxCell>
        <mxCell id="9j3O-kGa8PUBj-ueTTgq-165" value="Data Layer" style="rounded=0;whiteSpace=wrap;html=1;" vertex="1" parent="1">
          <mxGeometry x="380" y="1190" width="300" height="100" as="geometry" />
        </mxCell>
      </root>
    </mxGraphModel>
  </diagram>
</mxfile>
